<?xml version="1.0" encoding="UTF-8" standalone="no"?>
<!DOCTYPE svg PUBLIC "-//W3C//DTD SVG 1.1//EN"
 "http://www.w3.org/Graphics/SVG/1.1/DTD/svg11.dtd">
<!-- Generated by graphviz version 2.40.1 (20161225.0304)
 -->
<!-- Title: company Pages: 1 -->
<svg width="535pt" height="802pt"
 viewBox="0.00 0.00 534.50 802.00" xmlns="http://www.w3.org/2000/svg" xmlns:xlink="http://www.w3.org/1999/xlink">
<g id="graph0" class="graph" transform="scale(1 1) rotate(0) translate(4 798)">
<title>company</title>
<polygon fill="#ffffff" stroke="transparent" points="-4,4 -4,-798 530.5,-798 530.5,4 -4,4"/>
<!-- company -->
<g id="node1" class="node">
<title>company</title>
<polygon fill="#efefef" stroke="transparent" points="57.5,-285.5 57.5,-320.5 241.5,-320.5 241.5,-285.5 57.5,-285.5"/>
<polygon fill="none" stroke="#000000" points="57.5,-285.5 57.5,-320.5 241.5,-320.5 241.5,-285.5 57.5,-285.5"/>
<text text-anchor="start" x="64.3646" y="-298.3" font-family="Arial Bold" font-size="18.00" fill="#000000">company</text>
<text text-anchor="start" x="137.3816" y="-298.3" font-family="Arial" font-size="14.00" fill="#000000"> </text>
<text text-anchor="start" x="141.2722" y="-298.3" font-family="Arial" font-size="14.00" fill="#666666">[BASE TABLE]</text>
<polygon fill="none" stroke="#000000" points="57.5,-255.5 57.5,-285.5 241.5,-285.5 241.5,-255.5 57.5,-255.5"/>
<text text-anchor="start" x="64.5" y="-266.9" font-family="Arial" font-size="14.00" fill="#000000">id </text>
<text text-anchor="start" x="79.2798" y="-266.9" font-family="Arial" font-size="14.00" fill="#666666">[bigint]</text>
<polygon fill="none" stroke="#000000" points="57.5,-225.5 57.5,-255.5 241.5,-255.5 241.5,-225.5 57.5,-225.5"/>
<text text-anchor="start" x="64.5" y="-236.9" font-family="Arial" font-size="14.00" fill="#000000">uuid </text>
<text text-anchor="start" x="94.845" y="-236.9" font-family="Arial" font-size="14.00" fill="#666666">[varchar(191)]</text>
<polygon fill="none" stroke="#000000" points="57.5,-195.5 57.5,-225.5 241.5,-225.5 241.5,-195.5 57.5,-195.5"/>
<text text-anchor="start" x="64.5" y="-206.9" font-family="Arial" font-size="14.00" fill="#000000">name </text>
<text text-anchor="start" x="103.399" y="-206.9" font-family="Arial" font-size="14.00" fill="#666666">[varchar(191)]</text>
<polygon fill="none" stroke="#000000" points="57.5,-165.5 57.5,-195.5 241.5,-195.5 241.5,-165.5 57.5,-165.5"/>
<text text-anchor="start" x="64.5" y="-176.9" font-family="Arial" font-size="14.00" fill="#000000">createdAt </text>
<text text-anchor="start" x="128.2994" y="-176.9" font-family="Arial" font-size="14.00" fill="#666666">[datetime(3)]</text>
<polygon fill="none" stroke="#000000" points="57.5,-135.5 57.5,-165.5 241.5,-165.5 241.5,-135.5 57.5,-135.5"/>
<text text-anchor="start" x="64.5" y="-146.9" font-family="Arial" font-size="14.00" fill="#000000">updatedAt </text>
<text text-anchor="start" x="132.204" y="-146.9" font-family="Arial" font-size="14.00" fill="#666666">[datetime(3)]</text>
<polygon fill="none" stroke="#000000" points="57.5,-105.5 57.5,-135.5 241.5,-135.5 241.5,-105.5 57.5,-105.5"/>
<text text-anchor="start" x="64.5" y="-116.9" font-family="Arial" font-size="14.00" fill="#000000">deleted </text>
<text text-anchor="start" x="114.3008" y="-116.9" font-family="Arial" font-size="14.00" fill="#666666">[tinyint(1)]</text>
<polygon fill="none" stroke="#000000" points="57.5,-75.5 57.5,-105.5 241.5,-105.5 241.5,-75.5 57.5,-75.5"/>
<text text-anchor="start" x="64.5" y="-86.9" font-family="Arial" font-size="14.00" fill="#000000">deletedAt </text>
<text text-anchor="start" x="127.528" y="-86.9" font-family="Arial" font-size="14.00" fill="#666666">[datetime(3)]</text>
<polygon fill="none" stroke="#000000" points="57.5,-45.5 57.5,-75.5 241.5,-75.5 241.5,-45.5 57.5,-45.5"/>
<text text-anchor="start" x="64.5" y="-56.9" font-family="Arial" font-size="14.00" fill="#000000">ignoreIndexField </text>
<text text-anchor="start" x="171.8576" y="-56.9" font-family="Arial" font-size="14.00" fill="#666666">[tinyint(1)]</text>
<polygon fill="none" stroke="#000000" stroke-width="3" points="56,-44.5 56,-322.5 243,-322.5 243,-44.5 56,-44.5"/>
</g>
<!-- departments -->
<g id="node2" class="node">
<title>departments</title>
<polygon fill="#efefef" stroke="transparent" points="43.5,-715.5 43.5,-750.5 254.5,-750.5 254.5,-715.5 43.5,-715.5"/>
<polygon fill="none" stroke="#000000" points="43.5,-715.5 43.5,-750.5 254.5,-750.5 254.5,-715.5 43.5,-715.5"/>
<text text-anchor="start" x="50.3601" y="-728.3" font-family="Arial Bold" font-size="18.00" fill="#000000">departments</text>
<text text-anchor="start" x="150.3861" y="-728.3" font-family="Arial" font-size="14.00" fill="#000000"> </text>
<text text-anchor="start" x="154.2767" y="-728.3" font-family="Arial" font-size="14.00" fill="#666666">[BASE TABLE]</text>
<polygon fill="none" stroke="#000000" points="43.5,-685.5 43.5,-715.5 254.5,-715.5 254.5,-685.5 43.5,-685.5"/>
<text text-anchor="start" x="50.5" y="-696.9" font-family="Arial" font-size="14.00" fill="#000000">id </text>
<text text-anchor="start" x="65.2798" y="-696.9" font-family="Arial" font-size="14.00" fill="#666666">[bigint]</text>
<polygon fill="none" stroke="#000000" points="43.5,-655.5 43.5,-685.5 254.5,-685.5 254.5,-655.5 43.5,-655.5"/>
<text text-anchor="start" x="50.5" y="-666.9" font-family="Arial" font-size="14.00" fill="#000000">uuid </text>
<text text-anchor="start" x="80.845" y="-666.9" font-family="Arial" font-size="14.00" fill="#666666">[varchar(191)]</text>
<polygon fill="none" stroke="#000000" points="43.5,-625.5 43.5,-655.5 254.5,-655.5 254.5,-625.5 43.5,-625.5"/>
<text text-anchor="start" x="50.5" y="-636.9" font-family="Arial" font-size="14.00" fill="#000000">name </text>
<text text-anchor="start" x="89.399" y="-636.9" font-family="Arial" font-size="14.00" fill="#666666">[varchar(191)]</text>
<polygon fill="none" stroke="#000000" points="43.5,-595.5 43.5,-625.5 254.5,-625.5 254.5,-595.5 43.5,-595.5"/>
<text text-anchor="start" x="50.5" y="-606.9" font-family="Arial" font-size="14.00" fill="#000000">companyId </text>
<text text-anchor="start" x="122.8548" y="-606.9" font-family="Arial" font-size="14.00" fill="#666666">[bigint]</text>
<polygon fill="none" stroke="#000000" points="43.5,-565.5 43.5,-595.5 254.5,-595.5 254.5,-565.5 43.5,-565.5"/>
<text text-anchor="start" x="50.5" y="-576.9" font-family="Arial" font-size="14.00" fill="#000000">createdAt </text>
<text text-anchor="start" x="114.2994" y="-576.9" font-family="Arial" font-size="14.00" fill="#666666">[datetime(3)]</text>
<polygon fill="none" stroke="#000000" points="43.5,-535.5 43.5,-565.5 254.5,-565.5 254.5,-535.5 43.5,-535.5"/>
<text text-anchor="start" x="50.5" y="-546.9" font-family="Arial" font-size="14.00" fill="#000000">updatedAt </text>
<text text-anchor="start" x="118.204" y="-546.9" font-family="Arial" font-size="14.00" fill="#666666">[datetime(3)]</text>
<polygon fill="none" stroke="#000000" points="43.5,-505.5 43.5,-535.5 254.5,-535.5 254.5,-505.5 43.5,-505.5"/>
<text text-anchor="start" x="50.5" y="-516.9" font-family="Arial" font-size="14.00" fill="#000000">deleted </text>
<text text-anchor="start" x="100.3008" y="-516.9" font-family="Arial" font-size="14.00" fill="#666666">[tinyint(1)]</text>
<polygon fill="none" stroke="#000000" points="43.5,-475.5 43.5,-505.5 254.5,-505.5 254.5,-475.5 43.5,-475.5"/>
<text text-anchor="start" x="50.5" y="-486.9" font-family="Arial" font-size="14.00" fill="#000000">deletedAt </text>
<text text-anchor="start" x="113.528" y="-486.9" font-family="Arial" font-size="14.00" fill="#666666">[datetime(3)]</text>
<polygon fill="none" stroke="#000000" points="43.5,-445.5 43.5,-475.5 254.5,-475.5 254.5,-445.5 43.5,-445.5"/>
<text text-anchor="start" x="50.5" y="-456.9" font-family="Arial" font-size="14.00" fill="#000000">ignoreIndexField </text>
<text text-anchor="start" x="157.8576" y="-456.9" font-family="Arial" font-size="14.00" fill="#666666">[tinyint(1)]</text>
</g>
<!-- departments&#45;&gt;company -->
<g id="edge1" class="edge">
<title>departments:companyId&#45;&gt;company:id</title>
<path fill="none" stroke="#000000" d="M264.7393,-609.8864C344.0919,-599.9231 311.2525,-471.0634 254.5,-403 197.5005,-334.6404 114.4995,-435.3596 57.5,-367 30.0338,-334.0597 14.6111,-270.5 57.5,-270.5"/>
<polygon fill="#000000" stroke="#000000" points="264.4821,-609.9018 254.2308,-606.0081 259.491,-610.2009 254.5,-610.5 254.5,-610.5 254.5,-610.5 259.491,-610.2009 254.7692,-614.9919 264.4821,-609.9018 264.4821,-609.9018"/>
<text text-anchor="start" x="261.3265" y="-620.5" font-family="Arial" font-size="10.00" fill="#000000">FOREIGN KEY (companyId) REFERENCES company (id)</text>
</g>
</g>
</svg>
