<?xml version="1.0" encoding="UTF-8" standalone="no"?>
<!DOCTYPE svg PUBLIC "-//W3C//DTD SVG 1.1//EN"
 "http://www.w3.org/Graphics/SVG/1.1/DTD/svg11.dtd">
<!-- Generated by graphviz version 2.40.1 (20161225.0304)
 -->
<!-- Title: departments Pages: 1 -->
<svg width="538pt" height="802pt"
 viewBox="0.00 0.00 537.50 802.00" xmlns="http://www.w3.org/2000/svg" xmlns:xlink="http://www.w3.org/1999/xlink">
<g id="graph0" class="graph" transform="scale(1 1) rotate(0) translate(4 798)">
<title>departments</title>
<polygon fill="#ffffff" stroke="transparent" points="-4,4 -4,-798 533.5,-798 533.5,4 -4,4"/>
<!-- departments -->
<g id="node1" class="node">
<title>departments</title>
<polygon fill="#efefef" stroke="transparent" points="46.5,-712.5 46.5,-747.5 257.5,-747.5 257.5,-712.5 46.5,-712.5"/>
<polygon fill="none" stroke="#000000" points="46.5,-712.5 46.5,-747.5 257.5,-747.5 257.5,-712.5 46.5,-712.5"/>
<text text-anchor="start" x="53.3601" y="-725.3" font-family="Arial Bold" font-size="18.00" fill="#000000">departments</text>
<text text-anchor="start" x="153.3861" y="-725.3" font-family="Arial" font-size="14.00" fill="#000000"> </text>
<text text-anchor="start" x="157.2767" y="-725.3" font-family="Arial" font-size="14.00" fill="#666666">[BASE TABLE]</text>
<polygon fill="none" stroke="#000000" points="46.5,-682.5 46.5,-712.5 257.5,-712.5 257.5,-682.5 46.5,-682.5"/>
<text text-anchor="start" x="53.5" y="-693.9" font-family="Arial" font-size="14.00" fill="#000000">id </text>
<text text-anchor="start" x="68.2798" y="-693.9" font-family="Arial" font-size="14.00" fill="#666666">[bigint]</text>
<polygon fill="none" stroke="#000000" points="46.5,-652.5 46.5,-682.5 257.5,-682.5 257.5,-652.5 46.5,-652.5"/>
<text text-anchor="start" x="53.5" y="-663.9" font-family="Arial" font-size="14.00" fill="#000000">uuid </text>
<text text-anchor="start" x="83.845" y="-663.9" font-family="Arial" font-size="14.00" fill="#666666">[varchar(191)]</text>
<polygon fill="none" stroke="#000000" points="46.5,-622.5 46.5,-652.5 257.5,-652.5 257.5,-622.5 46.5,-622.5"/>
<text text-anchor="start" x="53.5" y="-633.9" font-family="Arial" font-size="14.00" fill="#000000">name </text>
<text text-anchor="start" x="92.399" y="-633.9" font-family="Arial" font-size="14.00" fill="#666666">[varchar(191)]</text>
<polygon fill="none" stroke="#000000" points="46.5,-592.5 46.5,-622.5 257.5,-622.5 257.5,-592.5 46.5,-592.5"/>
<text text-anchor="start" x="53.5" y="-603.9" font-family="Arial" font-size="14.00" fill="#000000">companyId </text>
<text text-anchor="start" x="125.8548" y="-603.9" font-family="Arial" font-size="14.00" fill="#666666">[bigint]</text>
<polygon fill="none" stroke="#000000" points="46.5,-562.5 46.5,-592.5 257.5,-592.5 257.5,-562.5 46.5,-562.5"/>
<text text-anchor="start" x="53.5" y="-573.9" font-family="Arial" font-size="14.00" fill="#000000">createdAt </text>
<text text-anchor="start" x="117.2994" y="-573.9" font-family="Arial" font-size="14.00" fill="#666666">[datetime(3)]</text>
<polygon fill="none" stroke="#000000" points="46.5,-532.5 46.5,-562.5 257.5,-562.5 257.5,-532.5 46.5,-532.5"/>
<text text-anchor="start" x="53.5" y="-543.9" font-family="Arial" font-size="14.00" fill="#000000">updatedAt </text>
<text text-anchor="start" x="121.204" y="-543.9" font-family="Arial" font-size="14.00" fill="#666666">[datetime(3)]</text>
<polygon fill="none" stroke="#000000" points="46.5,-502.5 46.5,-532.5 257.5,-532.5 257.5,-502.5 46.5,-502.5"/>
<text text-anchor="start" x="53.5" y="-513.9" font-family="Arial" font-size="14.00" fill="#000000">deleted </text>
<text text-anchor="start" x="103.3008" y="-513.9" font-family="Arial" font-size="14.00" fill="#666666">[tinyint(1)]</text>
<polygon fill="none" stroke="#000000" points="46.5,-472.5 46.5,-502.5 257.5,-502.5 257.5,-472.5 46.5,-472.5"/>
<text text-anchor="start" x="53.5" y="-483.9" font-family="Arial" font-size="14.00" fill="#000000">deletedAt </text>
<text text-anchor="start" x="116.528" y="-483.9" font-family="Arial" font-size="14.00" fill="#666666">[datetime(3)]</text>
<polygon fill="none" stroke="#000000" points="46.5,-442.5 46.5,-472.5 257.5,-472.5 257.5,-442.5 46.5,-442.5"/>
<text text-anchor="start" x="53.5" y="-453.9" font-family="Arial" font-size="14.00" fill="#000000">ignoreIndexField </text>
<text text-anchor="start" x="160.8576" y="-453.9" font-family="Arial" font-size="14.00" fill="#666666">[tinyint(1)]</text>
<polygon fill="none" stroke="#000000" stroke-width="3" points="44.5,-441.5 44.5,-749.5 258.5,-749.5 258.5,-441.5 44.5,-441.5"/>
</g>
<!-- company -->
<g id="node2" class="node">
<title>company</title>
<polygon fill="#efefef" stroke="transparent" points="60.5,-282.5 60.5,-317.5 244.5,-317.5 244.5,-282.5 60.5,-282.5"/>
<polygon fill="none" stroke="#000000" points="60.5,-282.5 60.5,-317.5 244.5,-317.5 244.5,-282.5 60.5,-282.5"/>
<text text-anchor="start" x="67.3646" y="-295.3" font-family="Arial Bold" font-size="18.00" fill="#000000">company</text>
<text text-anchor="start" x="140.3816" y="-295.3" font-family="Arial" font-size="14.00" fill="#000000"> </text>
<text text-anchor="start" x="144.2722" y="-295.3" font-family="Arial" font-size="14.00" fill="#666666">[BASE TABLE]</text>
<polygon fill="none" stroke="#000000" points="60.5,-252.5 60.5,-282.5 244.5,-282.5 244.5,-252.5 60.5,-252.5"/>
<text text-anchor="start" x="67.5" y="-263.9" font-family="Arial" font-size="14.00" fill="#000000">id </text>
<text text-anchor="start" x="82.2798" y="-263.9" font-family="Arial" font-size="14.00" fill="#666666">[bigint]</text>
<polygon fill="none" stroke="#000000" points="60.5,-222.5 60.5,-252.5 244.5,-252.5 244.5,-222.5 60.5,-222.5"/>
<text text-anchor="start" x="67.5" y="-233.9" font-family="Arial" font-size="14.00" fill="#000000">uuid </text>
<text text-anchor="start" x="97.845" y="-233.9" font-family="Arial" font-size="14.00" fill="#666666">[varchar(191)]</text>
<polygon fill="none" stroke="#000000" points="60.5,-192.5 60.5,-222.5 244.5,-222.5 244.5,-192.5 60.5,-192.5"/>
<text text-anchor="start" x="67.5" y="-203.9" font-family="Arial" font-size="14.00" fill="#000000">name </text>
<text text-anchor="start" x="106.399" y="-203.9" font-family="Arial" font-size="14.00" fill="#666666">[varchar(191)]</text>
<polygon fill="none" stroke="#000000" points="60.5,-162.5 60.5,-192.5 244.5,-192.5 244.5,-162.5 60.5,-162.5"/>
<text text-anchor="start" x="67.5" y="-173.9" font-family="Arial" font-size="14.00" fill="#000000">createdAt </text>
<text text-anchor="start" x="131.2994" y="-173.9" font-family="Arial" font-size="14.00" fill="#666666">[datetime(3)]</text>
<polygon fill="none" stroke="#000000" points="60.5,-132.5 60.5,-162.5 244.5,-162.5 244.5,-132.5 60.5,-132.5"/>
<text text-anchor="start" x="67.5" y="-143.9" font-family="Arial" font-size="14.00" fill="#000000">updatedAt </text>
<text text-anchor="start" x="135.204" y="-143.9" font-family="Arial" font-size="14.00" fill="#666666">[datetime(3)]</text>
<polygon fill="none" stroke="#000000" points="60.5,-102.5 60.5,-132.5 244.5,-132.5 244.5,-102.5 60.5,-102.5"/>
<text text-anchor="start" x="67.5" y="-113.9" font-family="Arial" font-size="14.00" fill="#000000">deleted </text>
<text text-anchor="start" x="117.3008" y="-113.9" font-family="Arial" font-size="14.00" fill="#666666">[tinyint(1)]</text>
<polygon fill="none" stroke="#000000" points="60.5,-72.5 60.5,-102.5 244.5,-102.5 244.5,-72.5 60.5,-72.5"/>
<text text-anchor="start" x="67.5" y="-83.9" font-family="Arial" font-size="14.00" fill="#000000">deletedAt </text>
<text text-anchor="start" x="130.528" y="-83.9" font-family="Arial" font-size="14.00" fill="#666666">[datetime(3)]</text>
<polygon fill="none" stroke="#000000" points="60.5,-42.5 60.5,-72.5 244.5,-72.5 244.5,-42.5 60.5,-42.5"/>
<text text-anchor="start" x="67.5" y="-53.9" font-family="Arial" font-size="14.00" fill="#000000">ignoreIndexField </text>
<text text-anchor="start" x="174.8576" y="-53.9" font-family="Arial" font-size="14.00" fill="#666666">[tinyint(1)]</text>
</g>
<!-- departments&#45;&gt;company -->
<g id="edge1" class="edge">
<title>departments:companyId&#45;&gt;company:id</title>
<path fill="none" stroke="#000000" d="M267.8873,-606.8776C348.3872,-596.7702 315.073,-466.0474 257.5,-397 200.5005,-328.6404 117.4995,-429.3596 60.5,-361 33.8876,-329.0838 18.9444,-267.5 60.5,-267.5"/>
<polygon fill="#000000" stroke="#000000" points="267.4821,-606.9018 257.2308,-603.0081 262.491,-607.2009 257.5,-607.5 257.5,-607.5 257.5,-607.5 262.491,-607.2009 257.7692,-611.9919 267.4821,-606.9018 267.4821,-606.9018"/>
<text text-anchor="start" x="264.3265" y="-617.5" font-family="Arial" font-size="10.00" fill="#000000">FOREIGN KEY (companyId) REFERENCES company (id)</text>
</g>
</g>
</svg>
