<?xml version="1.0" encoding="UTF-8" standalone="no"?>
<!DOCTYPE svg PUBLIC "-//W3C//DTD SVG 1.1//EN"
 "http://www.w3.org/Graphics/SVG/1.1/DTD/svg11.dtd">
<!-- Generated by graphviz version 2.40.1 (20161225.0304)
 -->
<!-- Title: profiles Pages: 1 -->
<svg width="473pt" height="832pt"
 viewBox="0.00 0.00 472.50 832.00" xmlns="http://www.w3.org/2000/svg" xmlns:xlink="http://www.w3.org/1999/xlink">
<g id="graph0" class="graph" transform="scale(1 1) rotate(0) translate(4 828)">
<title>profiles</title>
<polygon fill="#ffffff" stroke="transparent" points="-4,4 -4,-828 468.5,-828 468.5,4 -4,4"/>
<!-- profiles -->
<g id="node1" class="node">
<title>profiles</title>
<polygon fill="#efefef" stroke="transparent" points="235,-742.5 235,-777.5 417,-777.5 417,-742.5 235,-742.5"/>
<polygon fill="none" stroke="#000000" points="235,-742.5 235,-777.5 417,-777.5 417,-742.5 235,-742.5"/>
<text text-anchor="start" x="248.3724" y="-755.3" font-family="Arial Bold" font-size="18.00" fill="#000000">profiles</text>
<text text-anchor="start" x="306.3738" y="-755.3" font-family="Arial" font-size="14.00" fill="#000000"> </text>
<text text-anchor="start" x="310.2644" y="-755.3" font-family="Arial" font-size="14.00" fill="#666666">[BASE TABLE]</text>
<polygon fill="none" stroke="#000000" points="235,-712.5 235,-742.5 417,-742.5 417,-712.5 235,-712.5"/>
<text text-anchor="start" x="242" y="-723.9" font-family="Arial" font-size="14.00" fill="#000000">id </text>
<text text-anchor="start" x="256.7798" y="-723.9" font-family="Arial" font-size="14.00" fill="#666666">[bigint]</text>
<polygon fill="none" stroke="#000000" points="235,-682.5 235,-712.5 417,-712.5 417,-682.5 235,-682.5"/>
<text text-anchor="start" x="242" y="-693.9" font-family="Arial" font-size="14.00" fill="#000000">uuid </text>
<text text-anchor="start" x="272.345" y="-693.9" font-family="Arial" font-size="14.00" fill="#666666">[varchar(191)]</text>
<polygon fill="none" stroke="#000000" points="235,-652.5 235,-682.5 417,-682.5 417,-652.5 235,-652.5"/>
<text text-anchor="start" x="242" y="-663.9" font-family="Arial" font-size="14.00" fill="#000000">name </text>
<text text-anchor="start" x="280.899" y="-663.9" font-family="Arial" font-size="14.00" fill="#666666">[varchar(191)]</text>
<polygon fill="none" stroke="#000000" points="235,-622.5 235,-652.5 417,-652.5 417,-622.5 235,-622.5"/>
<text text-anchor="start" x="242" y="-633.9" font-family="Arial" font-size="14.00" fill="#000000">userId </text>
<text text-anchor="start" x="284.7896" y="-633.9" font-family="Arial" font-size="14.00" fill="#666666">[bigint]</text>
<polygon fill="none" stroke="#000000" points="235,-592.5 235,-622.5 417,-622.5 417,-592.5 235,-592.5"/>
<text text-anchor="start" x="242" y="-603.9" font-family="Arial" font-size="14.00" fill="#000000">createdAt </text>
<text text-anchor="start" x="305.7994" y="-603.9" font-family="Arial" font-size="14.00" fill="#666666">[datetime(3)]</text>
<polygon fill="none" stroke="#000000" points="235,-562.5 235,-592.5 417,-592.5 417,-562.5 235,-562.5"/>
<text text-anchor="start" x="242" y="-573.9" font-family="Arial" font-size="14.00" fill="#000000">updatedAt </text>
<text text-anchor="start" x="309.704" y="-573.9" font-family="Arial" font-size="14.00" fill="#666666">[datetime(3)]</text>
<polygon fill="none" stroke="#000000" points="235,-532.5 235,-562.5 417,-562.5 417,-532.5 235,-532.5"/>
<text text-anchor="start" x="242" y="-543.9" font-family="Arial" font-size="14.00" fill="#000000">deleted </text>
<text text-anchor="start" x="291.8008" y="-543.9" font-family="Arial" font-size="14.00" fill="#666666">[tinyint(1)]</text>
<polygon fill="none" stroke="#000000" points="235,-502.5 235,-532.5 417,-532.5 417,-502.5 235,-502.5"/>
<text text-anchor="start" x="242" y="-513.9" font-family="Arial" font-size="14.00" fill="#000000">deletedAt </text>
<text text-anchor="start" x="305.028" y="-513.9" font-family="Arial" font-size="14.00" fill="#666666">[datetime(3)]</text>
<polygon fill="none" stroke="#000000" points="235,-472.5 235,-502.5 417,-502.5 417,-472.5 235,-472.5"/>
<text text-anchor="start" x="241.5989" y="-483.9" font-family="Arial" font-size="14.00" fill="#000000">ignoreIndexField </text>
<text text-anchor="start" x="348.9565" y="-483.9" font-family="Arial" font-size="14.00" fill="#666666">[tinyint(1)]</text>
<polygon fill="none" stroke="#000000" stroke-width="3" points="233.5,-471.5 233.5,-779.5 418.5,-779.5 418.5,-471.5 233.5,-471.5"/>
</g>
<!-- users -->
<g id="node2" class="node">
<title>users</title>
<polygon fill="#efefef" stroke="transparent" points="229,-312.5 229,-347.5 422,-347.5 422,-312.5 229,-312.5"/>
<polygon fill="none" stroke="#000000" points="229,-312.5 229,-347.5 422,-347.5 422,-312.5 229,-312.5"/>
<text text-anchor="start" x="254.8708" y="-325.3" font-family="Arial Bold" font-size="18.00" fill="#000000">users</text>
<text text-anchor="start" x="298.8754" y="-325.3" font-family="Arial" font-size="14.00" fill="#000000"> </text>
<text text-anchor="start" x="302.766" y="-325.3" font-family="Arial" font-size="14.00" fill="#666666">[BASE TABLE]</text>
<polygon fill="none" stroke="#000000" points="229,-282.5 229,-312.5 422,-312.5 422,-282.5 229,-282.5"/>
<text text-anchor="start" x="236" y="-293.9" font-family="Arial" font-size="14.00" fill="#000000">id </text>
<text text-anchor="start" x="250.7798" y="-293.9" font-family="Arial" font-size="14.00" fill="#666666">[bigint]</text>
<polygon fill="none" stroke="#000000" points="229,-252.5 229,-282.5 422,-282.5 422,-252.5 229,-252.5"/>
<text text-anchor="start" x="236" y="-263.9" font-family="Arial" font-size="14.00" fill="#000000">uuid </text>
<text text-anchor="start" x="266.345" y="-263.9" font-family="Arial" font-size="14.00" fill="#666666">[varchar(191)]</text>
<polygon fill="none" stroke="#000000" points="229,-222.5 229,-252.5 422,-252.5 422,-222.5 229,-222.5"/>
<text text-anchor="start" x="236" y="-233.9" font-family="Arial" font-size="14.00" fill="#000000">email </text>
<text text-anchor="start" x="273.3296" y="-233.9" font-family="Arial" font-size="14.00" fill="#666666">[varchar(191)]</text>
<polygon fill="none" stroke="#000000" points="229,-192.5 229,-222.5 422,-222.5 422,-192.5 229,-192.5"/>
<text text-anchor="start" x="235.7089" y="-203.9" font-family="Arial" font-size="14.00" fill="#000000">role </text>
<text text-anchor="start" x="262.9319" y="-203.9" font-family="Arial" font-size="14.00" fill="#666666">[enum(&#39;USER&#39;,&#39;ADMIN&#39;)]</text>
<polygon fill="none" stroke="#000000" points="229,-162.5 229,-192.5 422,-192.5 422,-162.5 229,-162.5"/>
<text text-anchor="start" x="236" y="-173.9" font-family="Arial" font-size="14.00" fill="#000000">createdAt </text>
<text text-anchor="start" x="299.7994" y="-173.9" font-family="Arial" font-size="14.00" fill="#666666">[datetime(3)]</text>
<polygon fill="none" stroke="#000000" points="229,-132.5 229,-162.5 422,-162.5 422,-132.5 229,-132.5"/>
<text text-anchor="start" x="236" y="-143.9" font-family="Arial" font-size="14.00" fill="#000000">updatedAt </text>
<text text-anchor="start" x="303.704" y="-143.9" font-family="Arial" font-size="14.00" fill="#666666">[datetime(3)]</text>
<polygon fill="none" stroke="#000000" points="229,-102.5 229,-132.5 422,-132.5 422,-102.5 229,-102.5"/>
<text text-anchor="start" x="236" y="-113.9" font-family="Arial" font-size="14.00" fill="#000000">deleted </text>
<text text-anchor="start" x="285.8008" y="-113.9" font-family="Arial" font-size="14.00" fill="#666666">[tinyint(1)]</text>
<polygon fill="none" stroke="#000000" points="229,-72.5 229,-102.5 422,-102.5 422,-72.5 229,-72.5"/>
<text text-anchor="start" x="236" y="-83.9" font-family="Arial" font-size="14.00" fill="#000000">deletedAt </text>
<text text-anchor="start" x="299.028" y="-83.9" font-family="Arial" font-size="14.00" fill="#666666">[datetime(3)]</text>
<polygon fill="none" stroke="#000000" points="229,-42.5 229,-72.5 422,-72.5 422,-42.5 229,-42.5"/>
<text text-anchor="start" x="236" y="-53.9" font-family="Arial" font-size="14.00" fill="#000000">ignoreIndexField </text>
<text text-anchor="start" x="343.3576" y="-53.9" font-family="Arial" font-size="14.00" fill="#666666">[tinyint(1)]</text>
</g>
<!-- profiles&#45;&gt;users -->
<g id="edge1" class="edge">
<title>profiles:userId&#45;&gt;users:id</title>
<path fill="none" stroke="#000000" d="M224.6142,-636.8788C144.1383,-626.7914 177.7535,-496.3184 235,-427 288.8946,-361.7403 368.1054,-456.2597 422,-391 448.4614,-358.9585 463.5556,-297.5 422,-297.5"/>
<polygon fill="#000000" stroke="#000000" points="225.0178,-636.9029 234.7313,-641.992 230.0089,-637.2014 235,-637.5 235,-637.5 235,-637.5 230.0089,-637.2014 235.2687,-633.008 225.0178,-636.9029 225.0178,-636.9029"/>
<text text-anchor="start" x="7.4445" y="-647.5" font-family="Arial" font-size="10.00" fill="#000000">FOREIGN KEY (userId) REFERENCES users (id)</text>
</g>
</g>
</svg>
