<?xml version="1.0" encoding="UTF-8" standalone="no"?>
<!DOCTYPE svg PUBLIC "-//W3C//DTD SVG 1.1//EN"
 "http://www.w3.org/Graphics/SVG/1.1/DTD/svg11.dtd">
<!-- Generated by graphviz version 2.40.1 (20161225.0304)
 -->
<!-- Title: database_name Pages: 1 -->
<svg width="969pt" height="826pt"
 viewBox="0.00 0.00 968.50 826.00" xmlns="http://www.w3.org/2000/svg" xmlns:xlink="http://www.w3.org/1999/xlink">
<g id="graph0" class="graph" transform="scale(1 1) rotate(0) translate(4 822)">
<title>database_name</title>
<polygon fill="#ffffff" stroke="transparent" points="-4,4 -4,-822 964.5,-822 964.5,4 -4,4"/>
<!-- _prisma_migrations -->
<g id="node1" class="node">
<title>_prisma_migrations</title>
<polygon fill="#efefef" stroke="transparent" points="43,-724.5 43,-759.5 311,-759.5 311,-724.5 43,-724.5"/>
<polygon fill="none" stroke="#000000" points="43,-724.5 43,-759.5 311,-759.5 311,-724.5 43,-724.5"/>
<text text-anchor="start" x="49.8715" y="-737.3" font-family="Arial Bold" font-size="18.00" fill="#000000">_prisma_migrations</text>
<text text-anchor="start" x="206.8747" y="-737.3" font-family="Arial" font-size="14.00" fill="#000000"> </text>
<text text-anchor="start" x="210.7653" y="-737.3" font-family="Arial" font-size="14.00" fill="#666666">[BASE TABLE]</text>
<polygon fill="none" stroke="#000000" points="43,-694.5 43,-724.5 311,-724.5 311,-694.5 43,-694.5"/>
<text text-anchor="start" x="50" y="-705.9" font-family="Arial" font-size="14.00" fill="#000000">id </text>
<text text-anchor="start" x="64.7798" y="-705.9" font-family="Arial" font-size="14.00" fill="#666666">[varchar(36)]</text>
<polygon fill="none" stroke="#000000" points="43,-664.5 43,-694.5 311,-694.5 311,-664.5 43,-664.5"/>
<text text-anchor="start" x="50" y="-675.9" font-family="Arial" font-size="14.00" fill="#000000">checksum </text>
<text text-anchor="start" x="116.899" y="-675.9" font-family="Arial" font-size="14.00" fill="#666666">[varchar(64)]</text>
<polygon fill="none" stroke="#000000" points="43,-634.5 43,-664.5 311,-664.5 311,-634.5 43,-634.5"/>
<text text-anchor="start" x="50" y="-645.9" font-family="Arial" font-size="14.00" fill="#000000">finished_at </text>
<text text-anchor="start" x="121.5806" y="-645.9" font-family="Arial" font-size="14.00" fill="#666666">[datetime(3)]</text>
<polygon fill="none" stroke="#000000" points="43,-604.5 43,-634.5 311,-634.5 311,-604.5 43,-604.5"/>
<text text-anchor="start" x="50" y="-615.9" font-family="Arial" font-size="14.00" fill="#000000">migration_name </text>
<text text-anchor="start" x="154.237" y="-615.9" font-family="Arial" font-size="14.00" fill="#666666">[varchar(255)]</text>
<polygon fill="none" stroke="#000000" points="43,-574.5 43,-604.5 311,-604.5 311,-574.5 43,-574.5"/>
<text text-anchor="start" x="50" y="-585.9" font-family="Arial" font-size="14.00" fill="#000000">logs </text>
<text text-anchor="start" x="79.5624" y="-585.9" font-family="Arial" font-size="14.00" fill="#666666">[text]</text>
<polygon fill="none" stroke="#000000" points="43,-544.5 43,-574.5 311,-574.5 311,-544.5 43,-544.5"/>
<text text-anchor="start" x="50" y="-555.9" font-family="Arial" font-size="14.00" fill="#000000">rolled_back_at </text>
<text text-anchor="start" x="144.9158" y="-555.9" font-family="Arial" font-size="14.00" fill="#666666">[datetime(3)]</text>
<polygon fill="none" stroke="#000000" points="43,-514.5 43,-544.5 311,-544.5 311,-514.5 43,-514.5"/>
<text text-anchor="start" x="50" y="-525.9" font-family="Arial" font-size="14.00" fill="#000000">started_at </text>
<text text-anchor="start" x="116.136" y="-525.9" font-family="Arial" font-size="14.00" fill="#666666">[datetime(3)]</text>
<polygon fill="none" stroke="#000000" points="43,-484.5 43,-514.5 311,-514.5 311,-484.5 43,-484.5"/>
<text text-anchor="start" x="50" y="-495.9" font-family="Arial" font-size="14.00" fill="#000000">applied_steps_count </text>
<text text-anchor="start" x="182.2762" y="-495.9" font-family="Arial" font-size="14.00" fill="#666666">[int unsigned]</text>
</g>
<!-- company -->
<g id="node2" class="node">
<title>company</title>
<polygon fill="#efefef" stroke="transparent" points="430,-297.5 430,-332.5 614,-332.5 614,-297.5 430,-297.5"/>
<polygon fill="none" stroke="#000000" points="430,-297.5 430,-332.5 614,-332.5 614,-297.5 430,-297.5"/>
<text text-anchor="start" x="436.8646" y="-310.3" font-family="Arial Bold" font-size="18.00" fill="#000000">company</text>
<text text-anchor="start" x="509.8816" y="-310.3" font-family="Arial" font-size="14.00" fill="#000000"> </text>
<text text-anchor="start" x="513.7722" y="-310.3" font-family="Arial" font-size="14.00" fill="#666666">[BASE TABLE]</text>
<polygon fill="none" stroke="#000000" points="430,-267.5 430,-297.5 614,-297.5 614,-267.5 430,-267.5"/>
<text text-anchor="start" x="437" y="-278.9" font-family="Arial" font-size="14.00" fill="#000000">id </text>
<text text-anchor="start" x="451.7798" y="-278.9" font-family="Arial" font-size="14.00" fill="#666666">[bigint]</text>
<polygon fill="none" stroke="#000000" points="430,-237.5 430,-267.5 614,-267.5 614,-237.5 430,-237.5"/>
<text text-anchor="start" x="437" y="-248.9" font-family="Arial" font-size="14.00" fill="#000000">uuid </text>
<text text-anchor="start" x="467.345" y="-248.9" font-family="Arial" font-size="14.00" fill="#666666">[varchar(191)]</text>
<polygon fill="none" stroke="#000000" points="430,-207.5 430,-237.5 614,-237.5 614,-207.5 430,-207.5"/>
<text text-anchor="start" x="437" y="-218.9" font-family="Arial" font-size="14.00" fill="#000000">name </text>
<text text-anchor="start" x="475.899" y="-218.9" font-family="Arial" font-size="14.00" fill="#666666">[varchar(191)]</text>
<polygon fill="none" stroke="#000000" points="430,-177.5 430,-207.5 614,-207.5 614,-177.5 430,-177.5"/>
<text text-anchor="start" x="437" y="-188.9" font-family="Arial" font-size="14.00" fill="#000000">createdAt </text>
<text text-anchor="start" x="500.7994" y="-188.9" font-family="Arial" font-size="14.00" fill="#666666">[datetime(3)]</text>
<polygon fill="none" stroke="#000000" points="430,-147.5 430,-177.5 614,-177.5 614,-147.5 430,-147.5"/>
<text text-anchor="start" x="437" y="-158.9" font-family="Arial" font-size="14.00" fill="#000000">updatedAt </text>
<text text-anchor="start" x="504.704" y="-158.9" font-family="Arial" font-size="14.00" fill="#666666">[datetime(3)]</text>
<polygon fill="none" stroke="#000000" points="430,-117.5 430,-147.5 614,-147.5 614,-117.5 430,-117.5"/>
<text text-anchor="start" x="437" y="-128.9" font-family="Arial" font-size="14.00" fill="#000000">deleted </text>
<text text-anchor="start" x="486.8008" y="-128.9" font-family="Arial" font-size="14.00" fill="#666666">[tinyint(1)]</text>
<polygon fill="none" stroke="#000000" points="430,-87.5 430,-117.5 614,-117.5 614,-87.5 430,-87.5"/>
<text text-anchor="start" x="437" y="-98.9" font-family="Arial" font-size="14.00" fill="#000000">deletedAt </text>
<text text-anchor="start" x="500.028" y="-98.9" font-family="Arial" font-size="14.00" fill="#666666">[datetime(3)]</text>
<polygon fill="none" stroke="#000000" points="430,-57.5 430,-87.5 614,-87.5 614,-57.5 430,-57.5"/>
<text text-anchor="start" x="437" y="-68.9" font-family="Arial" font-size="14.00" fill="#000000">ignoreIndexField </text>
<text text-anchor="start" x="544.3576" y="-68.9" font-family="Arial" font-size="14.00" fill="#666666">[tinyint(1)]</text>
</g>
<!-- departments -->
<g id="node3" class="node">
<title>departments</title>
<polygon fill="#efefef" stroke="transparent" points="416,-739.5 416,-774.5 627,-774.5 627,-739.5 416,-739.5"/>
<polygon fill="none" stroke="#000000" points="416,-739.5 416,-774.5 627,-774.5 627,-739.5 416,-739.5"/>
<text text-anchor="start" x="422.8601" y="-752.3" font-family="Arial Bold" font-size="18.00" fill="#000000">departments</text>
<text text-anchor="start" x="522.8861" y="-752.3" font-family="Arial" font-size="14.00" fill="#000000"> </text>
<text text-anchor="start" x="526.7767" y="-752.3" font-family="Arial" font-size="14.00" fill="#666666">[BASE TABLE]</text>
<polygon fill="none" stroke="#000000" points="416,-709.5 416,-739.5 627,-739.5 627,-709.5 416,-709.5"/>
<text text-anchor="start" x="423" y="-720.9" font-family="Arial" font-size="14.00" fill="#000000">id </text>
<text text-anchor="start" x="437.7798" y="-720.9" font-family="Arial" font-size="14.00" fill="#666666">[bigint]</text>
<polygon fill="none" stroke="#000000" points="416,-679.5 416,-709.5 627,-709.5 627,-679.5 416,-679.5"/>
<text text-anchor="start" x="423" y="-690.9" font-family="Arial" font-size="14.00" fill="#000000">uuid </text>
<text text-anchor="start" x="453.345" y="-690.9" font-family="Arial" font-size="14.00" fill="#666666">[varchar(191)]</text>
<polygon fill="none" stroke="#000000" points="416,-649.5 416,-679.5 627,-679.5 627,-649.5 416,-649.5"/>
<text text-anchor="start" x="423" y="-660.9" font-family="Arial" font-size="14.00" fill="#000000">name </text>
<text text-anchor="start" x="461.899" y="-660.9" font-family="Arial" font-size="14.00" fill="#666666">[varchar(191)]</text>
<polygon fill="none" stroke="#000000" points="416,-619.5 416,-649.5 627,-649.5 627,-619.5 416,-619.5"/>
<text text-anchor="start" x="423" y="-630.9" font-family="Arial" font-size="14.00" fill="#000000">companyId </text>
<text text-anchor="start" x="495.3548" y="-630.9" font-family="Arial" font-size="14.00" fill="#666666">[bigint]</text>
<polygon fill="none" stroke="#000000" points="416,-589.5 416,-619.5 627,-619.5 627,-589.5 416,-589.5"/>
<text text-anchor="start" x="423" y="-600.9" font-family="Arial" font-size="14.00" fill="#000000">createdAt </text>
<text text-anchor="start" x="486.7994" y="-600.9" font-family="Arial" font-size="14.00" fill="#666666">[datetime(3)]</text>
<polygon fill="none" stroke="#000000" points="416,-559.5 416,-589.5 627,-589.5 627,-559.5 416,-559.5"/>
<text text-anchor="start" x="423" y="-570.9" font-family="Arial" font-size="14.00" fill="#000000">updatedAt </text>
<text text-anchor="start" x="490.704" y="-570.9" font-family="Arial" font-size="14.00" fill="#666666">[datetime(3)]</text>
<polygon fill="none" stroke="#000000" points="416,-529.5 416,-559.5 627,-559.5 627,-529.5 416,-529.5"/>
<text text-anchor="start" x="423" y="-540.9" font-family="Arial" font-size="14.00" fill="#000000">deleted </text>
<text text-anchor="start" x="472.8008" y="-540.9" font-family="Arial" font-size="14.00" fill="#666666">[tinyint(1)]</text>
<polygon fill="none" stroke="#000000" points="416,-499.5 416,-529.5 627,-529.5 627,-499.5 416,-499.5"/>
<text text-anchor="start" x="423" y="-510.9" font-family="Arial" font-size="14.00" fill="#000000">deletedAt </text>
<text text-anchor="start" x="486.028" y="-510.9" font-family="Arial" font-size="14.00" fill="#666666">[datetime(3)]</text>
<polygon fill="none" stroke="#000000" points="416,-469.5 416,-499.5 627,-499.5 627,-469.5 416,-469.5"/>
<text text-anchor="start" x="423" y="-480.9" font-family="Arial" font-size="14.00" fill="#000000">ignoreIndexField </text>
<text text-anchor="start" x="530.3576" y="-480.9" font-family="Arial" font-size="14.00" fill="#666666">[tinyint(1)]</text>
</g>
<!-- departments&#45;&gt;company -->
<g id="edge1" class="edge">
<title>departments:companyId&#45;&gt;company:id</title>
<path fill="none" stroke="#000000" d="M636.6611,-631.5139C670.2534,-608.5969 653.0204,-460.6144 627,-427 571.6388,-355.4816 485.3612,-447.5184 430,-376 404.5631,-343.1393 388.4444,-282.5 430,-282.5"/>
<polygon fill="#000000" stroke="#000000" points="636.5541,-631.547 625.6711,-630.2007 631.777,-633.0235 627,-634.5 627,-634.5 627,-634.5 631.777,-633.0235 628.3289,-638.7993 636.5541,-631.547 636.5541,-631.547"/>
<text text-anchor="start" x="633.8265" y="-644.5" font-family="Arial" font-size="10.00" fill="#000000">FOREIGN KEY (companyId) REFERENCES company (id)</text>
</g>
<!-- profiles -->
<g id="node4" class="node">
<title>profiles</title>
<polygon fill="#efefef" stroke="transparent" points="731,-739.5 731,-774.5 913,-774.5 913,-739.5 731,-739.5"/>
<polygon fill="none" stroke="#000000" points="731,-739.5 731,-774.5 913,-774.5 913,-739.5 731,-739.5"/>
<text text-anchor="start" x="744.3724" y="-752.3" font-family="Arial Bold" font-size="18.00" fill="#000000">profiles</text>
<text text-anchor="start" x="802.3738" y="-752.3" font-family="Arial" font-size="14.00" fill="#000000"> </text>
<text text-anchor="start" x="806.2644" y="-752.3" font-family="Arial" font-size="14.00" fill="#666666">[BASE TABLE]</text>
<polygon fill="none" stroke="#000000" points="731,-709.5 731,-739.5 913,-739.5 913,-709.5 731,-709.5"/>
<text text-anchor="start" x="738" y="-720.9" font-family="Arial" font-size="14.00" fill="#000000">id </text>
<text text-anchor="start" x="752.7798" y="-720.9" font-family="Arial" font-size="14.00" fill="#666666">[bigint]</text>
<polygon fill="none" stroke="#000000" points="731,-679.5 731,-709.5 913,-709.5 913,-679.5 731,-679.5"/>
<text text-anchor="start" x="738" y="-690.9" font-family="Arial" font-size="14.00" fill="#000000">uuid </text>
<text text-anchor="start" x="768.345" y="-690.9" font-family="Arial" font-size="14.00" fill="#666666">[varchar(191)]</text>
<polygon fill="none" stroke="#000000" points="731,-649.5 731,-679.5 913,-679.5 913,-649.5 731,-649.5"/>
<text text-anchor="start" x="738" y="-660.9" font-family="Arial" font-size="14.00" fill="#000000">name </text>
<text text-anchor="start" x="776.899" y="-660.9" font-family="Arial" font-size="14.00" fill="#666666">[varchar(191)]</text>
<polygon fill="none" stroke="#000000" points="731,-619.5 731,-649.5 913,-649.5 913,-619.5 731,-619.5"/>
<text text-anchor="start" x="738" y="-630.9" font-family="Arial" font-size="14.00" fill="#000000">userId </text>
<text text-anchor="start" x="780.7896" y="-630.9" font-family="Arial" font-size="14.00" fill="#666666">[bigint]</text>
<polygon fill="none" stroke="#000000" points="731,-589.5 731,-619.5 913,-619.5 913,-589.5 731,-589.5"/>
<text text-anchor="start" x="738" y="-600.9" font-family="Arial" font-size="14.00" fill="#000000">createdAt </text>
<text text-anchor="start" x="801.7994" y="-600.9" font-family="Arial" font-size="14.00" fill="#666666">[datetime(3)]</text>
<polygon fill="none" stroke="#000000" points="731,-559.5 731,-589.5 913,-589.5 913,-559.5 731,-559.5"/>
<text text-anchor="start" x="738" y="-570.9" font-family="Arial" font-size="14.00" fill="#000000">updatedAt </text>
<text text-anchor="start" x="805.704" y="-570.9" font-family="Arial" font-size="14.00" fill="#666666">[datetime(3)]</text>
<polygon fill="none" stroke="#000000" points="731,-529.5 731,-559.5 913,-559.5 913,-529.5 731,-529.5"/>
<text text-anchor="start" x="738" y="-540.9" font-family="Arial" font-size="14.00" fill="#000000">deleted </text>
<text text-anchor="start" x="787.8008" y="-540.9" font-family="Arial" font-size="14.00" fill="#666666">[tinyint(1)]</text>
<polygon fill="none" stroke="#000000" points="731,-499.5 731,-529.5 913,-529.5 913,-499.5 731,-499.5"/>
<text text-anchor="start" x="738" y="-510.9" font-family="Arial" font-size="14.00" fill="#000000">deletedAt </text>
<text text-anchor="start" x="801.028" y="-510.9" font-family="Arial" font-size="14.00" fill="#666666">[datetime(3)]</text>
<polygon fill="none" stroke="#000000" points="731,-469.5 731,-499.5 913,-499.5 913,-469.5 731,-469.5"/>
<text text-anchor="start" x="737.5989" y="-480.9" font-family="Arial" font-size="14.00" fill="#000000">ignoreIndexField </text>
<text text-anchor="start" x="844.9565" y="-480.9" font-family="Arial" font-size="14.00" fill="#666666">[tinyint(1)]</text>
</g>
<!-- users -->
<g id="node5" class="node">
<title>users</title>
<polygon fill="#efefef" stroke="transparent" points="725,-312.5 725,-347.5 918,-347.5 918,-312.5 725,-312.5"/>
<polygon fill="none" stroke="#000000" points="725,-312.5 725,-347.5 918,-347.5 918,-312.5 725,-312.5"/>
<text text-anchor="start" x="750.8708" y="-325.3" font-family="Arial Bold" font-size="18.00" fill="#000000">users</text>
<text text-anchor="start" x="794.8754" y="-325.3" font-family="Arial" font-size="14.00" fill="#000000"> </text>
<text text-anchor="start" x="798.766" y="-325.3" font-family="Arial" font-size="14.00" fill="#666666">[BASE TABLE]</text>
<polygon fill="none" stroke="#000000" points="725,-282.5 725,-312.5 918,-312.5 918,-282.5 725,-282.5"/>
<text text-anchor="start" x="732" y="-293.9" font-family="Arial" font-size="14.00" fill="#000000">id </text>
<text text-anchor="start" x="746.7798" y="-293.9" font-family="Arial" font-size="14.00" fill="#666666">[bigint]</text>
<polygon fill="none" stroke="#000000" points="725,-252.5 725,-282.5 918,-282.5 918,-252.5 725,-252.5"/>
<text text-anchor="start" x="732" y="-263.9" font-family="Arial" font-size="14.00" fill="#000000">uuid </text>
<text text-anchor="start" x="762.345" y="-263.9" font-family="Arial" font-size="14.00" fill="#666666">[varchar(191)]</text>
<polygon fill="none" stroke="#000000" points="725,-222.5 725,-252.5 918,-252.5 918,-222.5 725,-222.5"/>
<text text-anchor="start" x="732" y="-233.9" font-family="Arial" font-size="14.00" fill="#000000">email </text>
<text text-anchor="start" x="769.3296" y="-233.9" font-family="Arial" font-size="14.00" fill="#666666">[varchar(191)]</text>
<polygon fill="none" stroke="#000000" points="725,-192.5 725,-222.5 918,-222.5 918,-192.5 725,-192.5"/>
<text text-anchor="start" x="731.7089" y="-203.9" font-family="Arial" font-size="14.00" fill="#000000">role </text>
<text text-anchor="start" x="758.9319" y="-203.9" font-family="Arial" font-size="14.00" fill="#666666">[enum(&#39;USER&#39;,&#39;ADMIN&#39;)]</text>
<polygon fill="none" stroke="#000000" points="725,-162.5 725,-192.5 918,-192.5 918,-162.5 725,-162.5"/>
<text text-anchor="start" x="732" y="-173.9" font-family="Arial" font-size="14.00" fill="#000000">createdAt </text>
<text text-anchor="start" x="795.7994" y="-173.9" font-family="Arial" font-size="14.00" fill="#666666">[datetime(3)]</text>
<polygon fill="none" stroke="#000000" points="725,-132.5 725,-162.5 918,-162.5 918,-132.5 725,-132.5"/>
<text text-anchor="start" x="732" y="-143.9" font-family="Arial" font-size="14.00" fill="#000000">updatedAt </text>
<text text-anchor="start" x="799.704" y="-143.9" font-family="Arial" font-size="14.00" fill="#666666">[datetime(3)]</text>
<polygon fill="none" stroke="#000000" points="725,-102.5 725,-132.5 918,-132.5 918,-102.5 725,-102.5"/>
<text text-anchor="start" x="732" y="-113.9" font-family="Arial" font-size="14.00" fill="#000000">deleted </text>
<text text-anchor="start" x="781.8008" y="-113.9" font-family="Arial" font-size="14.00" fill="#666666">[tinyint(1)]</text>
<polygon fill="none" stroke="#000000" points="725,-72.5 725,-102.5 918,-102.5 918,-72.5 725,-72.5"/>
<text text-anchor="start" x="732" y="-83.9" font-family="Arial" font-size="14.00" fill="#000000">deletedAt </text>
<text text-anchor="start" x="795.028" y="-83.9" font-family="Arial" font-size="14.00" fill="#666666">[datetime(3)]</text>
<polygon fill="none" stroke="#000000" points="725,-42.5 725,-72.5 918,-72.5 918,-42.5 725,-42.5"/>
<text text-anchor="start" x="732" y="-53.9" font-family="Arial" font-size="14.00" fill="#000000">ignoreIndexField </text>
<text text-anchor="start" x="839.3576" y="-53.9" font-family="Arial" font-size="14.00" fill="#666666">[tinyint(1)]</text>
</g>
<!-- profiles&#45;&gt;users -->
<g id="edge2" class="edge">
<title>profiles:userId&#45;&gt;users:id</title>
<path fill="none" stroke="#000000" d="M721.3197,-631.4986C687.5829,-608.4659 703.9317,-459.7764 731,-427 784.8946,-361.7403 864.1054,-456.2597 918,-391 944.4614,-358.9585 959.5556,-297.5 918,-297.5"/>
<polygon fill="#000000" stroke="#000000" points="721.4486,-631.5385 729.6673,-638.7981 726.2243,-633.0192 731,-634.5 731,-634.5 731,-634.5 726.2243,-633.0192 732.3327,-630.2019 721.4486,-631.5385 721.4486,-631.5385"/>
<text text-anchor="start" x="679.6945" y="-618.5" font-family="Arial" font-size="10.00" fill="#000000">FOREIGN KEY (userId) REFERENCES users (id)</text>
</g>
</g>
</svg>
