<?xml version="1.0" encoding="UTF-8" standalone="no"?>
<!DOCTYPE svg PUBLIC "-//W3C//DTD SVG 1.1//EN"
 "http://www.w3.org/Graphics/SVG/1.1/DTD/svg11.dtd">
<!-- Generated by graphviz version 2.40.1 (20161225.0304)
 -->
<!-- Title: users Pages: 1 -->
<svg width="476pt" height="832pt"
 viewBox="0.00 0.00 475.50 832.00" xmlns="http://www.w3.org/2000/svg" xmlns:xlink="http://www.w3.org/1999/xlink">
<g id="graph0" class="graph" transform="scale(1 1) rotate(0) translate(4 828)">
<title>users</title>
<polygon fill="#ffffff" stroke="transparent" points="-4,4 -4,-828 471.5,-828 471.5,4 -4,4"/>
<!-- users -->
<g id="node1" class="node">
<title>users</title>
<polygon fill="#efefef" stroke="transparent" points="229,-315.5 229,-350.5 422,-350.5 422,-315.5 229,-315.5"/>
<polygon fill="none" stroke="#000000" points="229,-315.5 229,-350.5 422,-350.5 422,-315.5 229,-315.5"/>
<text text-anchor="start" x="254.8708" y="-328.3" font-family="Arial Bold" font-size="18.00" fill="#000000">users</text>
<text text-anchor="start" x="298.8754" y="-328.3" font-family="Arial" font-size="14.00" fill="#000000"> </text>
<text text-anchor="start" x="302.766" y="-328.3" font-family="Arial" font-size="14.00" fill="#666666">[BASE TABLE]</text>
<polygon fill="none" stroke="#000000" points="229,-285.5 229,-315.5 422,-315.5 422,-285.5 229,-285.5"/>
<text text-anchor="start" x="236" y="-296.9" font-family="Arial" font-size="14.00" fill="#000000">id </text>
<text text-anchor="start" x="250.7798" y="-296.9" font-family="Arial" font-size="14.00" fill="#666666">[bigint]</text>
<polygon fill="none" stroke="#000000" points="229,-255.5 229,-285.5 422,-285.5 422,-255.5 229,-255.5"/>
<text text-anchor="start" x="236" y="-266.9" font-family="Arial" font-size="14.00" fill="#000000">uuid </text>
<text text-anchor="start" x="266.345" y="-266.9" font-family="Arial" font-size="14.00" fill="#666666">[varchar(191)]</text>
<polygon fill="none" stroke="#000000" points="229,-225.5 229,-255.5 422,-255.5 422,-225.5 229,-225.5"/>
<text text-anchor="start" x="236" y="-236.9" font-family="Arial" font-size="14.00" fill="#000000">email </text>
<text text-anchor="start" x="273.3296" y="-236.9" font-family="Arial" font-size="14.00" fill="#666666">[varchar(191)]</text>
<polygon fill="none" stroke="#000000" points="229,-195.5 229,-225.5 422,-225.5 422,-195.5 229,-195.5"/>
<text text-anchor="start" x="235.7089" y="-206.9" font-family="Arial" font-size="14.00" fill="#000000">role </text>
<text text-anchor="start" x="262.9319" y="-206.9" font-family="Arial" font-size="14.00" fill="#666666">[enum(&#39;USER&#39;,&#39;ADMIN&#39;)]</text>
<polygon fill="none" stroke="#000000" points="229,-165.5 229,-195.5 422,-195.5 422,-165.5 229,-165.5"/>
<text text-anchor="start" x="236" y="-176.9" font-family="Arial" font-size="14.00" fill="#000000">createdAt </text>
<text text-anchor="start" x="299.7994" y="-176.9" font-family="Arial" font-size="14.00" fill="#666666">[datetime(3)]</text>
<polygon fill="none" stroke="#000000" points="229,-135.5 229,-165.5 422,-165.5 422,-135.5 229,-135.5"/>
<text text-anchor="start" x="236" y="-146.9" font-family="Arial" font-size="14.00" fill="#000000">updatedAt </text>
<text text-anchor="start" x="303.704" y="-146.9" font-family="Arial" font-size="14.00" fill="#666666">[datetime(3)]</text>
<polygon fill="none" stroke="#000000" points="229,-105.5 229,-135.5 422,-135.5 422,-105.5 229,-105.5"/>
<text text-anchor="start" x="236" y="-116.9" font-family="Arial" font-size="14.00" fill="#000000">deleted </text>
<text text-anchor="start" x="285.8008" y="-116.9" font-family="Arial" font-size="14.00" fill="#666666">[tinyint(1)]</text>
<polygon fill="none" stroke="#000000" points="229,-75.5 229,-105.5 422,-105.5 422,-75.5 229,-75.5"/>
<text text-anchor="start" x="236" y="-86.9" font-family="Arial" font-size="14.00" fill="#000000">deletedAt </text>
<text text-anchor="start" x="299.028" y="-86.9" font-family="Arial" font-size="14.00" fill="#666666">[datetime(3)]</text>
<polygon fill="none" stroke="#000000" points="229,-45.5 229,-75.5 422,-75.5 422,-45.5 229,-45.5"/>
<text text-anchor="start" x="236" y="-56.9" font-family="Arial" font-size="14.00" fill="#000000">ignoreIndexField </text>
<text text-anchor="start" x="343.3576" y="-56.9" font-family="Arial" font-size="14.00" fill="#666666">[tinyint(1)]</text>
<polygon fill="none" stroke="#000000" stroke-width="3" points="227,-44.5 227,-352.5 423,-352.5 423,-44.5 227,-44.5"/>
</g>
<!-- profiles -->
<g id="node2" class="node">
<title>profiles</title>
<polygon fill="#efefef" stroke="transparent" points="235,-745.5 235,-780.5 417,-780.5 417,-745.5 235,-745.5"/>
<polygon fill="none" stroke="#000000" points="235,-745.5 235,-780.5 417,-780.5 417,-745.5 235,-745.5"/>
<text text-anchor="start" x="248.3724" y="-758.3" font-family="Arial Bold" font-size="18.00" fill="#000000">profiles</text>
<text text-anchor="start" x="306.3738" y="-758.3" font-family="Arial" font-size="14.00" fill="#000000"> </text>
<text text-anchor="start" x="310.2644" y="-758.3" font-family="Arial" font-size="14.00" fill="#666666">[BASE TABLE]</text>
<polygon fill="none" stroke="#000000" points="235,-715.5 235,-745.5 417,-745.5 417,-715.5 235,-715.5"/>
<text text-anchor="start" x="242" y="-726.9" font-family="Arial" font-size="14.00" fill="#000000">id </text>
<text text-anchor="start" x="256.7798" y="-726.9" font-family="Arial" font-size="14.00" fill="#666666">[bigint]</text>
<polygon fill="none" stroke="#000000" points="235,-685.5 235,-715.5 417,-715.5 417,-685.5 235,-685.5"/>
<text text-anchor="start" x="242" y="-696.9" font-family="Arial" font-size="14.00" fill="#000000">uuid </text>
<text text-anchor="start" x="272.345" y="-696.9" font-family="Arial" font-size="14.00" fill="#666666">[varchar(191)]</text>
<polygon fill="none" stroke="#000000" points="235,-655.5 235,-685.5 417,-685.5 417,-655.5 235,-655.5"/>
<text text-anchor="start" x="242" y="-666.9" font-family="Arial" font-size="14.00" fill="#000000">name </text>
<text text-anchor="start" x="280.899" y="-666.9" font-family="Arial" font-size="14.00" fill="#666666">[varchar(191)]</text>
<polygon fill="none" stroke="#000000" points="235,-625.5 235,-655.5 417,-655.5 417,-625.5 235,-625.5"/>
<text text-anchor="start" x="242" y="-636.9" font-family="Arial" font-size="14.00" fill="#000000">userId </text>
<text text-anchor="start" x="284.7896" y="-636.9" font-family="Arial" font-size="14.00" fill="#666666">[bigint]</text>
<polygon fill="none" stroke="#000000" points="235,-595.5 235,-625.5 417,-625.5 417,-595.5 235,-595.5"/>
<text text-anchor="start" x="242" y="-606.9" font-family="Arial" font-size="14.00" fill="#000000">createdAt </text>
<text text-anchor="start" x="305.7994" y="-606.9" font-family="Arial" font-size="14.00" fill="#666666">[datetime(3)]</text>
<polygon fill="none" stroke="#000000" points="235,-565.5 235,-595.5 417,-595.5 417,-565.5 235,-565.5"/>
<text text-anchor="start" x="242" y="-576.9" font-family="Arial" font-size="14.00" fill="#000000">updatedAt </text>
<text text-anchor="start" x="309.704" y="-576.9" font-family="Arial" font-size="14.00" fill="#666666">[datetime(3)]</text>
<polygon fill="none" stroke="#000000" points="235,-535.5 235,-565.5 417,-565.5 417,-535.5 235,-535.5"/>
<text text-anchor="start" x="242" y="-546.9" font-family="Arial" font-size="14.00" fill="#000000">deleted </text>
<text text-anchor="start" x="291.8008" y="-546.9" font-family="Arial" font-size="14.00" fill="#666666">[tinyint(1)]</text>
<polygon fill="none" stroke="#000000" points="235,-505.5 235,-535.5 417,-535.5 417,-505.5 235,-505.5"/>
<text text-anchor="start" x="242" y="-516.9" font-family="Arial" font-size="14.00" fill="#000000">deletedAt </text>
<text text-anchor="start" x="305.028" y="-516.9" font-family="Arial" font-size="14.00" fill="#666666">[datetime(3)]</text>
<polygon fill="none" stroke="#000000" points="235,-475.5 235,-505.5 417,-505.5 417,-475.5 235,-475.5"/>
<text text-anchor="start" x="241.5989" y="-486.9" font-family="Arial" font-size="14.00" fill="#000000">ignoreIndexField </text>
<text text-anchor="start" x="348.9565" y="-486.9" font-family="Arial" font-size="14.00" fill="#666666">[tinyint(1)]</text>
</g>
<!-- profiles&#45;&gt;users -->
<g id="edge1" class="edge">
<title>profiles:userId&#45;&gt;users:id</title>
<path fill="none" stroke="#000000" d="M224.7622,-639.8877C145.4333,-629.944 178.5694,-501.3305 235,-433 288.8946,-367.7403 368.1054,-462.2597 422,-397 449.3105,-363.9304 464.8889,-300.5 422,-300.5"/>
<polygon fill="#000000" stroke="#000000" points="225.0178,-639.9029 234.7313,-644.992 230.0089,-640.2014 235,-640.5 235,-640.5 235,-640.5 230.0089,-640.2014 235.2687,-636.008 225.0178,-639.9029 225.0178,-639.9029"/>
<text text-anchor="start" x="7.4445" y="-650.5" font-family="Arial" font-size="10.00" fill="#000000">FOREIGN KEY (userId) REFERENCES users (id)</text>
</g>
</g>
</svg>
